<?xml version="1.0" encoding="UTF-8"?>
<svg version="1.1" xmlns="http://www.w3.org/2000/svg" width="1409" height="1143">
<path d="M0 0 C9.08183046 8.03777751 17.59788498 16.44541765 25.1640625 25.93359375 C27.88887174 29.31164133 30.7063883 32.59867873 33.54296875 35.8828125 C37.07947225 39.98475821 40.57161679 44.11084943 43.98046875 48.3203125 C47.54349243 52.70805053 51.20824767 56.99444201 54.91796875 61.2578125 C79.74237045 89.8073169 79.74237045 89.8073169 86.54296875 101.8828125 C85.76441969 101.88004712 84.98587063 101.87728174 84.18372917 101.87443256 C65.14063065 101.80785206 46.0975557 101.75837722 27.05436516 101.72737598 C17.84479436 101.71198121 8.63530179 101.69103516 -0.57421875 101.65649414 C-8.6118052 101.62636321 -16.64933494 101.60718399 -24.68697631 101.60054702 C-28.93325642 101.59667438 -33.17937441 101.58773241 -37.42560196 101.56562233 C-89.06815309 101.11416341 -89.06815309 101.11416341 -133.71875 123.9453125 C-142.61811051 133.1667451 -147.37372505 145.27879776 -147.484375 158.03515625 C-146.45265769 180.2832141 -132.75982117 195.45657083 -119.35009766 211.86279297 C-115.78846993 216.22356418 -112.29002579 220.62707582 -108.83203125 225.0703125 C-104.80041958 230.24304302 -100.63358566 235.27888044 -96.375 240.26586914 C-92.96570111 244.26236589 -89.66281472 248.33021879 -86.3984375 252.4453125 C-84.37648426 254.98394192 -82.32730856 257.4981458 -80.26953125 260.0078125 C-64.10562242 279.73278903 -64.10562242 279.73278903 -56.83203125 289.0703125 C-52.79725791 294.24657428 -48.62681496 299.28539626 -44.36621094 304.27685547 C-41.05245166 308.16264682 -37.83742749 312.11264392 -34.6640625 316.11328125 C-31.8882983 319.59649685 -29.08013224 323.05268453 -26.26953125 326.5078125 C-25.71700684 327.18714844 -25.16448242 327.86648438 -24.59521484 328.56640625 C-23.45695545 329.9657283 -22.31860802 331.36497873 -21.18017578 332.76416016 C-19.46803936 334.86927774 -17.75721156 336.97545116 -16.046875 339.08203125 C-9.86573819 346.69504309 -3.67242997 354.29772406 2.54296875 361.8828125 C4.04311156 363.71602898 5.54310957 365.54936396 7.04296875 367.3828125 C7.78546875 368.2903125 8.52796875 369.1978125 9.29296875 370.1328125 C11.54296875 372.8828125 13.79296875 375.6328125 16.04296875 378.3828125 C17.15285156 379.73632812 17.15285156 379.73632812 18.28515625 381.1171875 C19.81912199 382.99616283 21.34489746 384.88184826 22.86328125 386.7734375 C28.78557897 394.12110179 34.42932218 400.93546703 42.54296875 405.8828125 C46.72476367 404.28359876 49.31025293 401.19404094 52.23046875 397.9453125 C53.02928467 397.06915283 53.02928467 397.06915283 53.84423828 396.17529297 C56.98236251 392.70515199 59.99120675 389.15940111 62.91796875 385.5078125 C67.74083273 379.49683422 73.01573099 373.9483325 78.296875 368.34375 C82.76027469 363.60338212 87.03518263 358.72543138 91.16796875 353.6953125 C93.50330973 350.92977713 95.9823627 348.43968588 98.54296875 345.8828125 C104.7227453 339.34723063 110.59163049 332.67233291 116.23046875 325.6640625 C119.18407352 322.11175406 122.31079198 318.74418478 125.45703125 315.36328125 C128.44738233 312.13069503 131.28083204 308.81575384 134.04296875 305.3828125 C137.24228597 301.40651824 140.5688182 297.61612952 144.04296875 293.8828125 C148.33254635 289.27279611 152.34707772 284.50498014 156.296875 279.59765625 C159.42464054 275.81713964 162.75570758 272.23800375 166.078125 268.62890625 C168.47004172 265.96406084 170.73551759 263.23449425 172.98046875 260.4453125 C176.6386789 255.90964807 180.4903984 251.6258008 184.45678711 247.36352539 C187.44723875 244.13087275 190.28075882 240.81584484 193.04296875 237.3828125 C196.24228597 233.40651824 199.5688182 229.61612952 203.04296875 225.8828125 C207.33254635 221.27279611 211.34707772 216.50498014 215.296875 211.59765625 C218.42464054 207.81713964 221.75570758 204.23800375 225.078125 200.62890625 C227.47004172 197.96406084 229.73551759 195.23449425 231.98046875 192.4453125 C235.20240192 188.45056996 238.54954486 184.63729141 242.04296875 180.8828125 C246.35293313 176.2503287 250.39358043 171.46159017 254.36328125 166.53125 C256.52054274 163.91006131 258.75607875 161.39126969 261.04296875 158.8828125 C264.86345552 154.6868641 268.45565916 150.34879861 272.0234375 145.9375 C274.98868894 142.34241996 278.04062715 138.83044672 281.10546875 135.3203125 C285.36972287 130.43161922 289.51685383 125.48495819 293.53515625 120.390625 C301.10474528 110.93600212 309.13742839 101.83677351 317.02685547 92.64892578 C319.0341045 90.31069076 321.03958882 87.97094684 323.04467773 85.63085938 C324.04500906 84.46377899 325.04582445 83.29711334 326.04711914 82.13085938 C328.53251924 79.23505955 331.01034216 76.33343417 333.47265625 73.41796875 C344.162323 60.78763965 355.49229237 48.84317013 367.14807129 37.10247803 C368.1854997 36.0570066 369.22144358 35.01005951 370.2557373 33.96148682 C376.9999278 27.13399059 383.99412292 20.82556749 391.54296875 14.8828125 C392.24687744 14.31433594 392.95078613 13.74585938 393.67602539 13.16015625 C418.84362343 -7.13720541 447.36577655 -21.70683872 478.91796875 -28.8671875 C479.7776123 -29.06610596 480.63725586 -29.26502441 481.52294922 -29.4699707 C497.28696299 -32.83190264 513.41910394 -33.41600844 529.48168945 -33.42016602 C531.28121813 -33.42786112 533.08074331 -33.43641365 534.88026428 -33.44573975 C538.7277342 -33.46385292 542.57515722 -33.47599956 546.42266273 -33.48327827 C552.62111373 -33.49503778 558.81946722 -33.52063688 565.01786804 -33.54759216 C574.94443729 -33.58915387 584.87101223 -33.62153402 594.79762667 -33.65006632 C614.3378041 -33.70650578 633.87791721 -33.78199242 653.41802454 -33.85857105 C656.66173716 -33.87111497 659.90545128 -33.88317507 663.14916611 -33.89513397 C698.15343505 -34.02560227 733.15436727 -34.31597218 768.15631622 -34.73931295 C802.32172135 -35.15235396 836.48466165 -35.2492579 870.65234375 -35.25 C871.42551174 -35.25016117 872.19867973 -35.25032234 872.99527705 -35.2504884 C881.23702301 -35.25040134 889.3505037 -35.06644822 897.54296875 -34.1171875 C896.14783948 -30.44275589 894.82310687 -28.03292503 892.10546875 -25.1796875 C888.61120665 -21.37636612 885.38885064 -17.4473001 882.23046875 -13.3671875 C878.6018732 -8.69160339 874.89442013 -4.11100546 871.04296875 0.3828125 C867.27905875 4.77626616 863.65093942 9.24887244 860.10546875 13.8203125 C855.83293951 19.32484506 851.3796177 24.6395648 846.81933594 29.90722656 C843.26201337 34.02219604 839.82391454 38.21369149 836.44921875 42.48046875 C834.442028 45.01002267 832.40331544 47.51107188 830.35546875 50.0078125 C826.57127559 54.62204458 822.80405652 59.24973007 819.04296875 63.8828125 C813.8908167 70.2280945 808.72348864 76.56065953 803.54296875 82.8828125 C802.04282594 84.71602898 800.54282793 86.54936396 799.04296875 88.3828125 C798.29402344 89.29804688 797.54507812 90.21328125 796.7734375 91.15625 C795.3379694 92.91099034 793.90303079 94.66616405 792.46875 96.421875 C789.07263428 100.57756558 785.67240633 104.72921774 782.25 108.86328125 C776.70863965 115.56214982 771.1940003 122.27064565 765.85546875 129.1328125 C761.84310733 134.29030289 757.69403576 139.30740829 753.4519043 144.27709961 C750.1382706 148.16284593 746.92329361 152.1127339 743.75 156.11328125 C740.97423562 159.59649708 738.1660531 163.05267078 735.35546875 166.5078125 C734.80004395 167.19077393 734.24461914 167.87373535 733.67236328 168.57739258 C732.53119088 169.98039029 731.38991385 171.38330291 730.24853516 172.78613281 C727.51180396 176.15043964 724.77747325 179.51669578 722.04296875 182.8828125 C720.95964768 184.2161558 719.87631433 185.54948912 718.79296875 186.8828125 C718.25671875 187.5428125 717.72046875 188.2028125 717.16796875 188.8828125 C711.20963542 196.21614583 705.25130208 203.54947917 699.29296875 210.8828125 C698.75639648 211.54321533 698.21982422 212.20361816 697.66699219 212.8840332 C696.58693859 214.21331745 695.50686058 215.54258187 694.42675781 216.87182617 C691.66804102 220.26694579 688.90978866 223.66244102 686.15234375 227.05859375 C680.74767566 233.71434242 675.33536236 240.36344877 669.90234375 246.99609375 C665.33247461 252.58737404 660.78415185 258.1961975 656.23242188 263.80224609 C653.50338184 267.16306678 650.7731285 270.5229014 648.04296875 273.8828125 C646.95962929 275.21614085 645.87629596 276.54947419 644.79296875 277.8828125 C612.29296875 317.8828125 612.29296875 317.8828125 610.66577148 319.88549805 C609.58973783 321.20985962 608.51372844 322.53424091 607.43774414 323.85864258 C604.61793141 327.32941163 601.79761365 330.79976869 598.9765625 334.26953125 C598.39132812 334.98947266 597.80609375 335.70941406 597.203125 336.45117188 C596.08739638 337.82369518 594.97152042 339.19609873 593.85546875 340.56835938 C591.07014005 343.99509329 588.29598026 347.42999471 585.54296875 350.8828125 C582.07397037 349.44055934 580.36738305 347.73003842 578.10546875 344.7578125 C577.41453125 343.86707031 576.72359375 342.97632813 576.01171875 342.05859375 C575.625 341.5579541 575.23828125 341.05731445 574.83984375 340.54150391 C572.30912106 337.30473245 569.70133927 334.12987531 567.10546875 330.9453125 C566.5431958 330.25397217 565.98092285 329.56263184 565.40161133 328.8503418 C560.79374159 323.18492818 556.17151005 317.53134715 551.54296875 311.8828125 C550.04282594 310.04959602 548.54282793 308.21626104 547.04296875 306.3828125 C546.30046875 305.4753125 545.55796875 304.5678125 544.79296875 303.6328125 C533.54296875 289.8828125 522.29296875 276.1328125 511.04296875 262.3828125 C510.305625 261.48175781 509.56828125 260.58070313 508.80859375 259.65234375 C507.25594703 257.75436699 505.70389341 255.85590493 504.15234375 253.95703125 C503.37375 253.00441406 502.59515625 252.05179687 501.79296875 251.0703125 C500.68888672 249.71486328 500.68888672 249.71486328 499.5625 248.33203125 C497.90057056 246.31649981 496.20204997 244.34686995 494.48046875 242.3828125 C492.54296875 239.8828125 492.54296875 239.8828125 492.54296875 236.8828125 C493.94482422 235.47583008 493.94482422 235.47583008 495.91015625 234.02734375 C496.62631104 233.49141602 497.34246582 232.95548828 498.08032227 232.40332031 C498.85174561 231.83967773 499.62316895 231.27603516 500.41796875 230.6953125 C501.98738715 229.52007587 503.55639949 228.3442968 505.125 227.16796875 C505.8876416 226.60094238 506.6502832 226.03391602 507.43603516 225.44970703 C527.07715012 210.84290797 537.83277026 193.38795865 542.07421875 169.27734375 C544.18115663 154.01960192 539.70268992 142.3305578 531.10546875 129.78515625 C525.54002784 122.59119143 517.41255662 118.3368433 508.54296875 116.8828125 C497.95243638 115.90220765 488.68878129 120.44591168 480.54296875 126.8828125 C474.1061326 133.12378365 468.46503559 140.07012985 462.84765625 147.046875 C460.33502972 150.13868324 457.75664292 153.16731788 455.16796875 156.1953125 C451.38472546 160.63104345 447.737628 165.14883622 444.16796875 169.7578125 C439.71245204 175.50308405 435.0315347 181.01376691 430.24316406 186.48339844 C426.32664918 190.96041635 422.52969808 195.51824187 418.78515625 200.140625 C416.2404328 203.25281291 413.64682494 206.32011124 411.04296875 209.3828125 C407.68844779 213.32927374 404.37074913 217.29923485 401.10546875 221.3203125 C397.14788687 226.18410275 393.07754429 230.94162481 388.98461914 235.69116211 C385.95351586 239.21580169 382.97311559 242.77321132 380.04296875 246.3828125 C375.65234592 251.78787526 371.12384278 257.06605002 366.58203125 262.34375 C363.71699786 265.67446501 360.87638935 269.02519629 358.04296875 272.3828125 C352.74667044 278.65471964 347.40692226 284.88872585 342.05908203 291.11669922 C339.5519589 294.03723525 337.04759547 296.96013561 334.54296875 299.8828125 C333.54298216 301.04949066 332.54298215 302.21615732 331.54296875 303.3828125 C330.80046875 304.2490625 330.80046875 304.2490625 330.04296875 305.1328125 C265.54296875 380.3828125 265.54296875 380.3828125 264.04223633 382.13354492 C263.0445168 383.29763227 262.04695761 384.46185706 261.04956055 385.6262207 C258.51598132 388.58351137 255.97946738 391.53819619 253.4375 394.48828125 C248.93416177 399.71954661 244.45267132 404.95770495 240.10546875 410.3203125 C236.00510961 415.3697602 231.75927526 420.28054267 227.48950195 425.1862793 C220.59544202 433.11047455 213.78537887 441.10035057 207.16796875 449.2578125 C203.00140452 454.38014774 198.68095594 459.35698628 194.3425293 464.33325195 C190.42047335 468.84221207 186.6126501 473.42979314 182.8515625 478.07421875 C180.12952784 481.3857973 177.34157144 484.63594309 174.54296875 487.8828125 C170.98839383 492.0074555 167.47504577 496.15489154 164.04296875 500.3828125 C160.10918305 505.22878039 156.05849116 509.96379778 151.984375 514.69140625 C148.95338591 518.21599153 145.97304294 521.77330082 143.04296875 525.3828125 C139.10853619 530.22957725 135.05742301 534.96560505 130.98217773 539.69360352 C127.97051866 543.19516552 125.01237925 546.73067807 122.10546875 550.3203125 C117.96235884 555.42588715 113.66066425 560.38081303 109.34008789 565.33569336 C106.17831037 568.97019101 103.07446669 572.63802093 100.04296875 576.3828125 C95.92403709 581.47090456 91.64149541 586.40285073 87.33984375 591.3359375 C84.17817644 594.97037749 81.07439403 598.63811068 78.04296875 602.3828125 C74.46755006 606.79950617 70.7768994 611.10054612 67.04296875 615.3828125 C62.52058082 620.5716165 58.08752514 625.81550684 53.75390625 631.1640625 C51.18725285 634.32022994 48.58741325 637.44741503 45.98046875 640.5703125 C45.53807861 641.10035889 45.09568848 641.63040527 44.63989258 642.17651367 C43.60799208 643.41228696 42.57554374 644.64760275 41.54296875 645.8828125 C37.18580732 644.29933103 34.71988786 640.90349085 31.85546875 637.4453125 C31.3236499 636.81351074 30.79183105 636.18170898 30.24389648 635.53076172 C28.66891002 633.65461566 27.10411454 631.77048253 25.54296875 629.8828125 C24.7746875 628.95597656 24.00640625 628.02914062 23.21484375 627.07421875 C20.97863864 624.35350254 18.75928022 621.61975831 16.54296875 618.8828125 C15.54712911 617.65734554 14.55101765 616.43209945 13.5546875 615.20703125 C10.77909234 611.79370253 8.0054837 608.37876591 5.23242188 604.96337891 C2.50338184 601.60255822 -0.2268715 598.2427236 -2.95703125 594.8828125 C-4.04037071 593.54948415 -5.12370404 592.21615081 -6.20703125 590.8828125 C-6.74328125 590.2228125 -7.27953125 589.5628125 -7.83203125 588.8828125 C-25.70703126 566.88281249 -25.70703126 566.88281249 -27.33300781 564.8815918 C-28.41306141 563.55230755 -29.49313942 562.22304313 -30.57324219 560.89379883 C-33.33195898 557.49867921 -36.09021134 554.10318398 -38.84765625 550.70703125 C-44.24706857 544.05775496 -49.6537239 537.41479059 -55.08203125 530.7890625 C-58.6178356 526.46235455 -62.1381219 522.12307471 -65.66015625 517.78515625 C-68.75182458 513.97835903 -71.84907988 510.17634138 -74.95703125 506.3828125 C-78.63578134 501.89257342 -82.29815062 497.38923935 -85.95703125 492.8828125 C-91.10924075 486.53757696 -96.27651113 480.20496576 -101.45703125 473.8828125 C-102.95717406 472.04959602 -104.45717207 470.21626104 -105.95703125 468.3828125 C-106.69953125 467.4753125 -107.44203125 466.5678125 -108.20703125 465.6328125 C-116.08203125 456.0078125 -116.08203125 456.0078125 -123.95703125 446.3828125 C-124.70210937 445.47273438 -125.4471875 444.56265625 -126.21484375 443.625 C-127.69107985 441.81956839 -129.16509861 440.01232109 -130.63671875 438.203125 C-134.7136943 433.19758563 -138.83743777 428.23797171 -143.01953125 423.3203125 C-146.88933551 418.76986936 -150.65662638 414.15448899 -154.3671875 409.47265625 C-157.2892344 405.85150281 -160.30524611 402.31326681 -163.3203125 398.76953125 C-166.23707638 395.33709641 -169.11396551 391.87688435 -171.95703125 388.3828125 C-175.24526608 384.34298113 -178.58424551 380.35189185 -181.95703125 376.3828125 C-186.07804759 371.53321869 -190.12694479 366.63120444 -194.14453125 361.6953125 C-196.71849517 358.56481584 -199.33272211 355.47108789 -201.95703125 352.3828125 C-206.07686424 347.53461125 -210.12499089 342.63435405 -214.140625 337.69921875 C-216.73490547 334.54495868 -219.37317142 331.43085055 -222.01953125 328.3203125 C-225.92811288 323.72237716 -229.74935498 319.06825366 -233.5 314.33984375 C-237.10407776 309.81496369 -240.78780215 305.35488147 -244.45703125 300.8828125 C-246.71041598 298.12954346 -248.9629453 295.37557853 -251.21484375 292.62109375 C-252.68595738 290.82448982 -254.15982653 289.03013793 -255.63671875 287.23828125 C-274.99517229 263.71190444 -293.69491503 239.72742971 -306.45703125 211.8828125 C-307.00101563 210.696875 -307.545 209.5109375 -308.10546875 208.2890625 C-319.43089798 181.84389781 -322.92798631 148.8871472 -315.45703125 120.8828125 C-315.15901611 119.72362305 -315.15901611 119.72362305 -314.85498047 118.54101562 C-304.25167486 78.09754585 -278.61060466 38.57966633 -246.45703125 11.8828125 C-245.585625 11.10035156 -244.71421875 10.31789062 -243.81640625 9.51171875 C-175.02930955 -51.76244489 -71.6201141 -61.71399339 0 0 Z " fill="#FFFFFF" transform="translate(511.45703125,42.1171875)"/>
<path d="M0 0 C8.50391419 0.95034109 14.68518714 11.82993639 19.609375 17.9765625 C22.54073287 21.57248286 25.57349527 25.06859525 28.625 28.5625 C33.12292582 33.72061255 37.51496998 38.94409001 41.82421875 44.26171875 C44.50558916 47.52579783 47.24562863 50.7350072 50 53.9375 C50.50708496 54.52708496 51.01416992 55.11666992 51.53662109 55.72412109 C52.04402832 56.31402832 52.55143555 56.90393555 53.07421875 57.51171875 C59.31927321 64.77281003 65.5213115 72.06803429 71.5625 79.5 C75.52008188 84.36379025 79.59042446 89.12131231 83.68334961 93.87084961 C87.45834391 98.2605035 91.13228461 102.72364771 94.78125 107.21875 C97.51802049 110.53936486 100.3160295 113.80296782 103.125 117.0625 C107.42472713 122.05190767 111.62985409 127.10471156 115.78125 132.21875 C118.51802049 135.53936486 121.3160295 138.80296782 124.125 142.0625 C128.42472713 147.05190767 132.62985409 152.10471156 136.78125 157.21875 C139.51802138 160.53936594 142.31606385 163.80293709 145.125 167.0625 C149.44434272 172.07564773 153.67597277 177.14787515 157.84765625 182.28515625 C160.40703972 185.40646267 163.01089916 188.48703424 165.625 191.5625 C168.97947127 195.50900481 172.29721829 199.47892072 175.5625 203.5 C179.52008188 208.36379025 183.59042446 213.12131231 187.68334961 217.87084961 C191.45834391 222.2605035 195.13228461 226.72364771 198.78125 231.21875 C201.51802049 234.53936486 204.3160295 237.80296782 207.125 241.0625 C211.42472713 246.05190767 215.62985409 251.10471156 219.78125 256.21875 C222.51802049 259.53936486 225.3160295 262.80296782 228.125 266.0625 C232.42472713 271.05190767 236.62985409 276.10471156 240.78125 281.21875 C243.51802049 284.53936486 246.3160295 287.80296782 249.125 291.0625 C253.42472713 296.05190767 257.62985409 301.10471156 261.78125 306.21875 C265.02463763 310.15406033 268.35646797 314.01069302 271.68579102 317.87329102 C274.69745009 321.37485302 277.6555895 324.91036557 280.5625 328.5 C284.16137155 332.93490704 287.87258125 337.2579381 291.625 341.5625 C296.91323919 347.63494119 302.07662017 353.78820668 307.125 360.0625 C308.1157622 361.28265215 309.10665596 362.50269747 310.09765625 363.72265625 C326.10168902 383.48487225 338.04468183 403.08037117 343.875 428 C344.07383789 428.84449707 344.27267578 429.68899414 344.47753906 430.55908203 C347.80654399 445.7223283 348.50265163 460.8438974 348.4375 476.3125 C348.43567719 477.21391724 348.43385437 478.11533447 348.43197632 479.04406738 C348.38697401 492.27152117 347.92454406 505.09256507 345.125 518.0625 C344.87556641 519.31039307 344.87556641 519.31039307 344.62109375 520.58349609 C334.85496032 569.02532645 307.29887887 613.74834985 266.1640625 641.72607422 C225.15321884 668.60506826 172.19465595 680.52586419 123.8984375 670.87109375 C77.4897558 660.84196364 36.26050384 632.24926569 7.125 595.0625 C6.36832031 594.09957031 5.61164062 593.13664062 4.83203125 592.14453125 C-5.53615417 578.79950956 -15.44503824 565.10041041 -25.30273438 551.3762207 C-29.22616688 545.92423352 -33.25338248 540.56261601 -37.36328125 535.25 C-38.875 533.0625 -38.875 533.0625 -38.875 531.0625 C-18.03122812 527.60321063 3.91380094 528.95751745 24.99680519 529.07903099 C30.0137758 529.10748529 35.03074719 529.1240594 40.04777527 529.13850403 C54.29080267 529.18070559 68.53374263 529.22885886 82.77661133 529.30932617 C90.69379793 529.35395967 98.61090164 529.38411313 106.52820319 529.39818364 C110.69396087 529.40619905 114.85939608 529.42146437 119.02503395 529.45485497 C122.93157954 529.48613925 126.83773966 529.49836921 130.74440575 529.49663734 C132.16611135 529.4993072 133.58782515 529.50872347 135.00942993 529.52586365 C152.30860316 529.72522449 166.02549121 524.56837909 178.66796875 512.7421875 C190.91855528 499.38145243 195.92225972 484.00445969 195.25244141 466.05908203 C193.87077194 444.41292712 177.47078395 426.81780685 163.9296875 411.296875 C160.66345287 407.55076703 157.53514133 403.6977735 154.40234375 399.83984375 C151.84296028 396.71853733 149.23910084 393.63796576 146.625 390.5625 C143.27052873 386.61599519 139.95278171 382.64607928 136.6875 378.625 C132.72991812 373.76120975 128.65957554 369.00368769 124.56665039 364.25415039 C120.79165609 359.8644965 117.11771539 355.40135229 113.46875 350.90625 C110.73197951 347.58563514 107.9339705 344.32203218 105.125 341.0625 C101.57046839 336.93781796 98.05707857 332.79042288 94.625 328.5625 C90.23787098 323.16173828 85.71276588 317.887823 81.17578125 312.61328125 C74.94977633 305.37433876 68.7641376 298.10384091 62.75 290.6875 C58.58343577 285.56516476 54.26298719 280.58832622 49.92456055 275.61206055 C46.00010903 271.10034637 42.19073217 266.50924445 38.42578125 261.86328125 C35.24762681 257.99445828 31.98400938 254.20194589 28.71777344 250.4074707 C25.22747906 246.35230851 21.76248439 242.27699078 18.3125 238.1875 C16.58460707 236.1447493 14.85494848 234.10351178 13.125 232.0625 C12.43148437 231.24265625 11.73796875 230.4228125 11.0234375 229.578125 C10.41757812 228.87171875 9.81171875 228.1653125 9.1875 227.4375 C8.43146484 226.55191406 8.43146484 226.55191406 7.66015625 225.6484375 C5.88101307 223.81044225 4.34929135 222.34873846 2.125 221.0625 C-3.39219129 221.21864692 -5.87839909 224.63517355 -9.484375 228.40234375 C-12.66138655 231.93754778 -15.65381261 235.59976783 -18.625 239.30859375 C-20.80086716 241.9717645 -23.05678209 244.52292448 -25.375 247.0625 C-28.48958668 250.47989372 -31.4668662 253.9677235 -34.375 257.5625 C-37.98532442 262.02526213 -41.75927929 266.28969533 -45.625 270.53125 C-47.95362053 273.1509481 -50.17062947 275.8376531 -52.375 278.5625 C-55.98649134 283.02670457 -59.76160694 287.29252114 -63.62890625 291.53515625 C-65.93687598 294.13212393 -68.13055863 296.79654013 -70.3125 299.5 C-74.17208603 304.27246203 -78.24699991 308.79359109 -82.40234375 313.30859375 C-85.62209519 316.89457284 -88.63405176 320.62951492 -91.66015625 324.37890625 C-94.53980887 327.86800916 -97.58193876 331.19246921 -100.62890625 334.53515625 C-102.93687598 337.13212393 -105.13055863 339.79654013 -107.3125 342.5 C-111.17208603 347.27246203 -115.24699991 351.79359109 -119.40234375 356.30859375 C-122.62209519 359.89457284 -125.63405176 363.62951492 -128.66015625 367.37890625 C-130.83132827 370.00958557 -133.07741357 372.54192424 -135.375 375.0625 C-138.48958668 378.47989372 -141.4668662 381.9677235 -144.375 385.5625 C-147.2831338 389.1572765 -150.26041332 392.64510628 -153.375 396.0625 C-156.39782421 399.38239486 -159.30012161 402.76014112 -162.125 406.25 C-167.34018515 412.68961993 -172.78831752 418.91705403 -178.22851562 425.16601562 C-180.81137409 428.14105189 -183.37556914 431.1319406 -185.9375 434.125 C-186.42839111 434.69839111 -186.91928223 435.27178223 -187.42504883 435.86254883 C-188.41385203 437.01780518 -189.40254049 438.17315976 -190.39111328 439.32861328 C-192.88395524 442.24144046 -195.37962766 445.15184061 -197.875 448.0625 C-198.8750134 449.22915518 -199.87501341 450.39582184 -200.875 451.5625 C-202.875 453.89583333 -204.875 456.22916667 -206.875 458.5625 C-207.36991943 459.13991943 -207.86483887 459.71733887 -208.37475586 460.31225586 C-209.37551606 461.47978228 -210.37632992 462.6472627 -211.37719727 463.81469727 C-213.86600676 466.71783629 -216.35390091 469.62174949 -218.83984375 472.52734375 C-225.60150405 480.42799733 -232.39925522 488.29652535 -239.21630859 496.14941406 C-240.90312335 498.09493664 -242.58674018 500.04318401 -244.26953125 501.9921875 C-249.00778472 507.47660102 -253.74673689 512.95149211 -258.625 518.3125 C-262.37972704 522.45564708 -265.91816677 526.74294187 -269.43359375 531.08984375 C-272.15218762 534.40000364 -274.94558404 537.63768761 -277.75 540.875 C-281.8258047 545.5871227 -285.74812095 550.38660176 -289.5625 555.3125 C-293.37537914 560.2350977 -297.34573954 564.91989188 -301.57568359 569.49511719 C-303.79076256 571.96844171 -305.85605082 574.51172743 -307.91796875 577.11328125 C-313.10470904 583.4780035 -318.74244771 589.28421979 -324.5625 595.0625 C-325.35477493 595.85204071 -325.35477493 595.85204071 -326.16305542 596.65753174 C-333.96754726 604.4167763 -341.83238876 611.75806652 -350.875 618.0625 C-351.44911621 618.47032715 -352.02323242 618.8781543 -352.61474609 619.29833984 C-362.57915559 626.34870594 -373.06610035 632.40657007 -383.875 638.0625 C-384.55755859 638.42085937 -385.24011719 638.77921875 -385.94335938 639.1484375 C-417.50927897 655.46823267 -450.87966099 660.27508783 -485.98046875 660.44140625 C-487.91863135 660.45749023 -489.85678751 660.47436534 -491.79493713 660.49194336 C-497.09514052 660.53761199 -502.39536167 660.57177889 -507.69566345 660.60368729 C-513.48953805 660.64036361 -519.28333468 660.68704629 -525.07714844 660.73217773 C-535.37805311 660.81088882 -545.67899524 660.88204426 -555.97998047 660.94921875 C-567.6144819 661.02515119 -579.24890066 661.10910552 -590.88330078 661.19921875 C-670.24805134 661.81291352 -749.60801507 662.18154741 -862.875 662.0625 C-861.01261309 658.09179081 -858.4362113 655.02691059 -855.5625 651.75 C-855.03269531 651.13898437 -854.50289062 650.52796875 -853.95703125 649.8984375 C-852.83430624 648.60440469 -851.70975046 647.31195832 -850.58349609 646.02099609 C-848.38133515 643.4965984 -846.18816834 640.96447274 -843.99487305 638.43237305 C-842.90954577 637.17954386 -841.82376645 635.92710615 -840.73754883 634.67504883 C-831.8280572 624.40407094 -823.00550113 614.06023792 -814.23388672 603.67138672 C-812.40790227 601.50946837 -810.57989675 599.3492642 -808.75170898 597.18920898 C-807.83568121 596.10683746 -806.91982764 595.02431847 -806.00415039 593.94165039 C-803.69043212 591.20613268 -801.37456105 588.47248789 -799.0546875 585.7421875 C-793.25248335 578.90912978 -787.52560893 572.02195605 -781.875 565.0625 C-780.83076546 563.77731426 -779.78649206 562.4921601 -778.7421875 561.20703125 C-778.19111328 560.52858154 -777.64003906 559.85013184 -777.07226562 559.15112305 C-775.94402127 557.76272684 -774.81511861 556.37486532 -773.68554688 554.98754883 C-771.20426049 551.93878846 -768.72893359 548.88673113 -766.2890625 545.8046875 C-758.8739393 536.51680281 -751.84011456 529.6407358 -739.875 527.0625 C-738.44058571 526.97412733 -737.00269961 526.9342159 -735.56556702 526.93221474 C-734.7060547 526.92859039 -733.84654238 526.92496604 -732.96098423 526.92123187 C-732.02132281 526.92230012 -731.0816614 526.92336837 -730.11352539 526.92446899 C-729.11149802 526.92164771 -728.10947065 526.91882643 -727.07707882 526.91591966 C-723.70893019 526.90756637 -720.3408144 526.90623472 -716.97265625 526.90478516 C-714.56119697 526.90011713 -712.14973858 526.89497358 -709.73828125 526.88938904 C-704.53712119 526.87810004 -699.33596421 526.86961843 -694.13479614 526.86326981 C-685.89575072 526.85292409 -677.65674539 526.83235152 -669.41772461 526.81015015 C-666.5951692 526.8026699 -663.77261362 526.79525609 -660.95005798 526.78786278 C-660.24456025 526.78601221 -659.53906252 526.78416165 -658.81218606 526.782255 C-650.77974255 526.76132497 -642.74729456 526.74250262 -634.71484375 526.72460938 C-633.61359738 526.7221521 -633.61359738 526.7221521 -632.4901036 526.71964519 C-620.63133319 526.69344224 -608.77255969 526.67475458 -596.9137727 526.65801747 C-584.71389951 526.64052246 -572.51408648 526.61159323 -560.31426144 526.5731281 C-552.805569 526.54987221 -545.29697476 526.53574663 -537.78824604 526.53380047 C-532.00928434 526.5314177 -526.23044875 526.51340016 -520.45153809 526.48993111 C-518.0991616 526.48279855 -515.74676346 526.48060735 -513.39437866 526.48403358 C-476.98991202 526.52854164 -443.76448254 519.07404866 -417.1875 492.8125 C-411.02349827 486.55886866 -405.58080799 479.90500699 -400.29345703 472.90869141 C-397.66339951 469.48554253 -394.91967841 466.15426683 -392.1875 462.8125 C-391.08439024 461.45983532 -389.98151824 460.10697671 -388.87890625 458.75390625 C-388.36215332 458.11984863 -387.84540039 457.48579102 -387.31298828 456.83251953 C-385.4036267 454.48228669 -383.51249689 452.11781419 -381.625 449.75 C-377.86992041 445.04446458 -374.06624015 440.38022817 -370.24414062 435.72900391 C-369.25792864 434.52859681 -368.27232555 433.32768937 -367.28710938 432.12646484 C-360.81408565 424.2349242 -354.31867902 416.36651239 -347.70532227 408.59204102 C-344.90961864 405.30088317 -342.15999371 401.97688742 -339.4375 398.625 C-335.47991812 393.76120975 -331.40957554 389.00368769 -327.31665039 384.25415039 C-324.28554711 380.72951081 -321.30514684 377.17210118 -318.375 373.5625 C-313.98787098 368.16173828 -309.46276588 362.887823 -304.92578125 357.61328125 C-298.68072679 350.35218997 -292.4786885 343.05696571 -286.4375 335.625 C-282.02237176 330.20249847 -277.47487523 324.90122545 -272.9140625 319.6015625 C-270.04902911 316.27084749 -267.2084206 312.92011621 -264.375 309.5625 C-259.0773645 303.28900936 -253.73604823 297.05364357 -248.38671875 290.82421875 C-246.89173505 289.0820026 -245.39865734 287.33817336 -243.90625 285.59375 C-238.20555401 278.93183012 -232.47994084 272.29239763 -226.73291016 265.67041016 C-221.58338251 259.73361522 -216.46799766 253.76796545 -211.35888672 247.79638672 C-209.36604529 245.46779839 -207.37135582 243.14079738 -205.37646484 240.81396484 C-204.37787817 239.64910944 -203.37950472 238.48407121 -202.38134766 237.31884766 C-199.84787723 234.36161478 -197.31142376 231.40702942 -194.76953125 228.45703125 C-189.49941577 222.33517994 -184.30449788 216.16884937 -179.2109375 209.8984375 C-175.51607329 205.41269934 -171.71539178 201.01895166 -167.92578125 196.61328125 C-161.68072679 189.35218997 -155.4786885 182.05696571 -149.4375 174.625 C-145.47991812 169.76120975 -141.40957554 165.00368769 -137.31665039 160.25415039 C-134.28554711 156.72951081 -131.30514684 153.17210118 -128.375 149.5625 C-124.94291987 145.3345752 -121.42948829 141.1872211 -117.875 137.0625 C-113.55327137 132.04658311 -109.32020804 126.97074701 -105.14453125 121.83203125 C-100.32811061 115.95450589 -95.380057 110.18638086 -90.45898438 104.39648438 C-85.7398039 98.84181966 -81.03424951 93.28190075 -76.4375 87.625 C-72.48056582 82.76200576 -68.41064058 78.00549797 -64.31884766 73.25634766 C-60.52336633 68.84218234 -56.82222087 64.35916802 -53.15234375 59.83984375 C-50.59295946 56.71853633 -47.98906209 53.6379997 -45.375 50.5625 C-42.00216411 46.59346457 -38.66323355 42.60232979 -35.375 38.5625 C-31.63008811 33.96160825 -27.81178629 29.42898367 -23.96972656 24.90942383 C-20.98144373 21.38796842 -18.03922283 17.83330461 -15.125 14.25 C-14.39925781 13.37085938 -13.67351563 12.49171875 -12.92578125 11.5859375 C-11.59751108 9.95153268 -10.30060322 8.29092224 -9.04296875 6.6015625 C-4.35265176 0.56661739 -4.35265176 0.56661739 0 0 Z " fill="#C7C7C7" transform="translate(862.875,468.9375)"/>
<path d="M0 0 C0.66 0.33 1.32 0.66 2 1 C-2.95 5.95 -7.9 10.9 -13 16 C-13 11.90207912 -10.85453029 10.26032343 -8.1875 7.4375 C-7.29417969 6.46683594 -6.40085937 5.49617187 -5.48046875 4.49609375 C-3 2 -3 2 0 0 Z " fill="#A5A5A5" transform="translate(110,1001)"/>
</svg>
